<svg width="128" height="128" xmlns="http://www.w3.org/2000/svg">

 <g>
  <title>Layer 1</title>
  <g stroke="null">
   <title stroke="null">file_type_godot</title>
   <path stroke="null" fill="#478cbf" d="m278.4325,260.04924l0,6.09454a1.13536,1.37976 0 0 1 -0.78929,1.31704l-7.89286,3.10261a1.11411,1.35393 0 0 1 -1.01696,-0.19922a1.13536,1.37976 0 0 1 -0.47054,-1.10676l0,-6.64054l-7.40107,1.71178l0,6.75491a1.13839,1.38345 0 0 1 -0.98661,1.36869l-10.70089,1.78188c-0.04857,0 -0.10321,0 -0.15482,0a1.13536,1.37976 0 0 1 -1.14446,-1.37976l0,-7.1681l-5.52196,0.02951l-0.81054,0l-5.52196,-0.02951l0,7.1681a1.13839,1.38345 0 0 1 -1.13839,1.38714c-0.05161,0 -0.10321,0 -0.15786,0l-10.70089,-1.78188a1.13839,1.38345 0 0 1 -0.98357,-1.36869l0,-6.78073l-7.40411,-1.71178l0,6.64054a1.13536,1.37976 0 0 1 -0.4675,1.10676a1.12321,1.365 0 0 1 -1.02,0.19922l-7.89286,-3.10261a1.13536,1.37976 0 0 1 -0.78625,-1.31704l0,-6.0761l-4.88143,-1.99585a13.83679,16.81533 0 0 0 -0.37643,3.83676c0,15.92624 18.46321,28.22231 41.28572,28.31085l0.05768,0c22.81947,-0.08854 41.28572,-12.38092 41.28572,-28.31085a13.78214,16.74893 0 0 0 -0.30357,-3.50473l-4.10429,1.66383z"/>
   <path stroke="null" fill="#478cbf" d="m204.19411,231.8048l0,24.81719l2.75339,1.12889a1.13536,1.37976 0 0 1 0.77714,1.30966l0,6.08716l5.63125,2.21351l0,-6.43395a1.14143,1.38714 0 0 1 1.35089,-1.36131l9.68089,2.24672a1.13536,1.37976 0 0 1 0.92589,1.35762l0,6.70695l8.42411,1.3982l0,-6.97257a1.13536,1.37976 0 0 1 1.14143,-1.38345l0,0l7.06411,0.0332l7.06107,-0.0332a1.13536,1.37976 0 0 1 1.14446,1.38345l0,6.97257l8.42411,-1.3982l0,-6.71064a1.13232,1.37607 0 0 1 0.91071,-1.35762l9.68089,-2.24672a1.14446,1.39082 0 0 1 1.35393,1.36131l0,6.42288l5.63125,-2.21351l0,-6.0761a1.13536,1.37976 0 0 1 0.77411,-1.30966l1.87607,-0.76735l0,-25.17504l0.05161,0a81.33286,98.8408 0 0 0 5.14857,-9.009a57.73929,70.16841 0 0 0 -7.61661,-12.13006a74.39625,90.411 0 0 0 -7.56196,5.34195a39.49464,47.99637 0 0 0 -3.88268,-3.88103a46.64375,56.68442 0 0 0 -4.17411,-3.29814a86.07161,104.59963 0 0 0 0.70429,-11.32951a48.47429,58.909 0 0 0 -11.32625,-4.70003a80.26429,97.54221 0 0 0 -4.20446,9.96082a28.71786,34.89975 0 0 0 -4.41089,-0.42795l-0.05464,0a28.70875,34.88868 0 0 0 -4.41393,0.42795a79.7634,96.93349 0 0 0 -4.20446,-9.96082a48.45304,58.88318 0 0 0 -11.32321,4.70372a85.43107,103.82121 0 0 0 0.70429,11.32951a46.48286,56.48889 0 0 0 -4.17714,3.29814a39.64643,48.18083 0 0 0 -3.87964,3.87734a74.5359,90.5807 0 0 0 -7.55893,-5.34195a57.73929,70.16841 0 0 0 -7.61964,12.13006a81.33286,98.8408 0 0 0 5.1425,9.01269l0.05161,-0.00369z"/>
   <path stroke="null" fill="#fff" d="m230.75964,243.70982a8.31482,10.10469 0 1 1 -8.31786,-10.101a8.31482,10.10469 0 0 1 8.31786,10.101"/>
   <path stroke="null" fill="#414042" d="m228.75,244.31485a5.52196,6.71064 0 1 1 -5.52196,-6.71064a5.51589,6.70326 0 0 1 5.52196,6.71064"/>
   <path stroke="null" fill="#fff" d="m242.00393,254.7405a2.56214,3.11368 0 0 1 -2.6775,-2.95135l0,-9.30783a2.68964,3.26862 0 0 1 5.355,0l0,9.30414a2.56518,3.11737 0 0 1 -2.68054,2.95135"/>
   <path stroke="null" fill="#fff" d="m253.25125,243.70982a8.31482,10.10469 0 1 0 8.31786,-10.101a8.31482,10.10469 0 0 0 -8.31786,10.101"/>
   <path stroke="null" fill="#414042" d="m255.25482,244.31485a5.51893,6.70695 0 1 0 5.51589,-6.71064a5.51589,6.70326 0 0 0 -5.51589,6.71064"/>
  </g>
  <g stroke="null">
   <title stroke="null">file_type_godot</title>
   <path stroke="null" fill="#478cbf" d="m119.71167,46.71601l0,3.59524a0.77446,0.81394 0 0 1 -0.5384,0.77694l-5.38396,1.83027a0.75997,0.7987 0 0 1 -0.6937,-0.11752a0.77446,0.81394 0 0 1 -0.32097,-0.65289l0,-3.91734l-5.0485,1.0098l0,3.9848a0.77653,0.81611 0 0 1 -0.673,0.80741l-7.29941,1.05115c-0.03313,0 -0.07041,0 -0.10561,0a0.77446,0.81394 0 0 1 -0.78067,-0.81394l0,-4.22855l-3.7667,0.01741l-0.55289,0l-3.7667,-0.01741l0,4.22855a0.77653,0.81611 0 0 1 -0.77653,0.81829c-0.0352,0 -0.07041,0 -0.10768,0l-7.29941,-1.05115a0.77653,0.81611 0 0 1 -0.67092,-0.80741l0,-4.00003l-5.05057,-1.0098l0,3.91734a0.77446,0.81394 0 0 1 -0.3189,0.65289a0.76618,0.80523 0 0 1 -0.69577,0.11752l-5.38396,-1.83027a0.77446,0.81394 0 0 1 -0.53633,-0.77694l0,-3.58436l-3.32977,-1.17738a9.4385,9.91956 0 0 0 -0.25677,2.26335c0,9.39508 12.59433,16.64868 28.16227,16.70091l0.03934,0c15.56586,-0.05223 28.16227,-7.30365 28.16227,-16.70091a9.40123,9.88039 0 0 0 -0.20708,-2.06748l-2.79966,0.98151z"/>
   <path stroke="null" fill="#478cbf" d="m69.07136,30.05428l0,14.63995l1.87817,0.66595a0.77446,0.81394 0 0 1 0.53011,0.77259l0,3.59089l3.84125,1.30578l0,-3.79546a0.7786,0.81829 0 0 1 0.92149,-0.80305l6.60364,1.32537a0.77446,0.81394 0 0 1 0.63158,0.80088l0,3.95651l5.74634,0.82482l0,-4.1132a0.77446,0.81394 0 0 1 0.7786,-0.81611l0,0l4.81865,0.01959l4.81658,-0.01959a0.77446,0.81394 0 0 1 0.78067,0.81611l0,4.1132l5.74634,-0.82482l0,-3.95868a0.77239,0.81176 0 0 1 0.62123,-0.80088l6.60364,-1.32537a0.78067,0.82046 0 0 1 0.92356,0.80305l0,3.78893l3.84125,-1.30578l0,-3.58436a0.77446,0.81394 0 0 1 0.52804,-0.77259l1.27973,-0.45267l0,-14.85105l0.0352,0a55.47966,58.30736 0 0 0 3.512,-5.31452a39.38576,41.39318 0 0 0 -5.19552,-7.15567a50.74799,53.33452 0 0 0 -5.15825,3.15128a26.94052,28.31363 0 0 0 -2.6485,-2.28946a31.81715,33.43881 0 0 0 -2.84729,-1.94561a58.71211,61.70456 0 0 0 0.48042,-6.68341a33.06581,34.75112 0 0 0 -7.72599,-2.7726a54.75076,57.5413 0 0 0 -2.868,5.876a19.58934,20.58777 0 0 0 -3.00881,-0.25245l-0.03727,0a19.58313,20.58124 0 0 0 -3.01088,0.25245a54.40908,57.18221 0 0 0 -2.868,-5.876a33.05132,34.73588 0 0 0 -7.72392,2.77478a58.27518,61.24536 0 0 0 0.48042,6.68341a31.7074,33.32347 0 0 0 -2.84936,1.94561a27.04406,28.42244 0 0 0 -2.64642,2.28729a50.84324,53.43463 0 0 0 -5.15618,-3.15128a39.38576,41.39318 0 0 0 -5.19759,7.15567a55.47966,58.30736 0 0 0 3.50786,5.31669l0.0352,-0.00218z"/>
   <path stroke="null" fill="#fff" d="m87.19254,37.07719a5.6718,5.96088 0 1 1 -5.67387,-5.9587a5.6718,5.96088 0 0 1 5.67387,5.9587"/>
   <path stroke="null" fill="#414042" d="m85.8217,37.4341a3.7667,3.95868 0 1 1 -3.7667,-3.95868a3.76256,3.95433 0 0 1 3.7667,3.95868"/>
   <path stroke="null" fill="#fff" d="m94.86261,43.58432a1.74772,1.8368 0 0 1 -1.82641,-1.74104l0,-5.4908a1.83469,1.9282 0 0 1 3.65281,0l0,5.48862a1.74979,1.83897 0 0 1 -1.82848,1.74104"/>
   <path stroke="null" fill="#fff" d="m102.53476,37.07719a5.6718,5.96088 0 1 0 5.67387,-5.9587a5.6718,5.96088 0 0 0 -5.67387,5.9587"/>
   <path stroke="null" fill="#414042" d="m103.90146,37.4341a3.76463,3.95651 0 1 0 3.76256,-3.95868a3.76256,3.95433 0 0 0 -3.76256,3.95868"/>
  </g>
  <g stroke="null">
   <g stroke="null" text-anchor="none" font-size="none" font-weight="none" font-family="none" stroke-dashoffset="0" stroke-miterlimit="10" fill-rule="nonzero" fill="#a5e095">
    <g stroke="null" transform="translate(0 -66.4643) scale(5.33333 5.33333)">
     <path stroke="null" d="m8.15342,17.26096c-4.23012,0 -7.69113,3.09916 -7.69113,6.97092c0,2.21521 1.10351,4.12942 2.88152,5.41677l-0.47893,1.85587c-0.1131,0.43235 0.33469,0.78182 0.68305,0.53893l1.86358,-1.31221c0.73292,0.2769 1.58365,0.43292 2.44324,0.46207c-0.09953,-0.44207 -0.15375,-0.89887 -0.15375,-1.37008c0,-3.70659 3.24837,-6.72328 7.23871,-6.72328c0.27598,0 0.54248,0.0145 0.80941,0.04364c-0.57457,-3.3471 -3.76823,-5.88264 -7.5957,-5.88264l0,0zm-2.71452,3.37113c0.49766,0 0.90484,0.43721 0.90484,0.97158c0,0.53437 -0.40718,0.97158 -0.90484,0.97158c-0.49766,0 -0.90484,-0.43721 -0.90484,-0.97158c0,-0.53437 0.40718,-0.97158 0.90484,-0.97158zm5.42904,0c0.49766,0 0.90484,0.43721 0.90484,0.97158c0,0.53437 -0.40718,0.97158 -0.90484,0.97158c-0.49766,0 -0.90484,-0.43721 -0.90484,-0.97158c0,-0.53437 0.40718,-0.97158 0.90484,-0.97158zm4.07178,3.43944c-3.50625,0 -6.33387,2.56004 -6.33387,5.7517c0,3.19165 2.82762,5.75644 6.33387,5.75644c0.87769,0 1.70601,-0.15515 2.43441,-0.41747l1.45181,0.88429c0.34836,0.21375 0.76424,-0.13633 0.65566,-0.5541l-0.35257,-1.37957c1.31654,-1.04445 2.14457,-2.56016 2.14457,-4.28958c0,-3.19165 -2.82762,-5.7517 -6.33387,-5.7517l0,0zm-2.03589,3.36164c0.36194,0 0.67863,0.34005 0.67863,0.72869c0,0.38863 -0.31669,0.72869 -0.67863,0.72869c-0.36194,0 -0.67863,-0.34005 -0.67863,-0.72869c0,-0.38863 0.31669,-0.72869 0.67863,-0.72869zm4.07178,0c0.36194,0 0.67863,0.34005 0.67863,0.72869c0,0.38863 -0.31669,0.72869 -0.67863,0.72869c-0.36194,0 -0.67863,-0.34005 -0.67863,-0.72869c0,-0.38863 0.31669,-0.72869 0.67863,-0.72869z"/>
    </g>
   </g>
  </g>
 </g>
</svg>